HIERARCHY
ROOT Hips
{
	OFFSET 0.00000 0.00000 0.00000
	CHANNELS 6 Xposition Yposition Zposition Zrotation Yrotation Xrotation 
	JOINT LHipJoint
	{
		OFFSET 0 0 0
		CHANNELS 3 Zrotation Yrotation Xrotation
		JOINT LeftUpLeg
		{
			OFFSET 1.62329 -1.80800 0.67318
			CHANNELS 3 Zrotation Yrotation Xrotation
			JOINT LeftLeg
			{
				OFFSET 2.57139 -7.06484 0.00000
				CHANNELS 3 Zrotation Yrotation Xrotation
				JOINT LeftFoot
				{
					OFFSET 2.52017 -6.92413 0.00000
					CHANNELS 3 Zrotation Yrotation Xrotation
					JOINT LeftToeBase
					{
						OFFSET 0.23295 -0.64001 2.10214
						CHANNELS 3 Zrotation Yrotation Xrotation
						End Site
						{
							OFFSET 0.00000 -0.00000 1.10139
						}
					}
				}
			}
		}
	}
	JOINT RHipJoint
	{
		OFFSET 0 0 0
		CHANNELS 3 Zrotation Yrotation Xrotation
		JOINT RightUpLeg
		{
			OFFSET -1.48061 -1.80800 0.67318
			CHANNELS 3 Zrotation Yrotation Xrotation
			JOINT RightLeg
			{
				OFFSET -2.63258 -7.23296 0.00000
				CHANNELS 3 Zrotation Yrotation Xrotation
				JOINT RightFoot
				{
					OFFSET -2.54779 -7.00000 0.00000
					CHANNELS 3 Zrotation Yrotation Xrotation
					JOINT RightToeBase
					{
						OFFSET -0.23067 -0.63376 2.12161
						CHANNELS 3 Zrotation Yrotation Xrotation
						End Site
						{
							OFFSET -0.00000 -0.00000 1.11000
						}
					}
				}
			}
		}
	}
	JOINT LowerBack
	{
		OFFSET 0 0 0
		CHANNELS 3 Zrotation Yrotation Xrotation
		JOINT Spine
		{
			OFFSET -0.02108 2.07573 -0.16981
			CHANNELS 3 Zrotation Yrotation Xrotation
			JOINT Spine1
			{
				OFFSET 0.05070 2.08439 -0.03141
				CHANNELS 3 Zrotation Yrotation Xrotation
				JOINT Neck
				{
					OFFSET 0 0 0
					CHANNELS 3 Zrotation Yrotation Xrotation
					JOINT Neck1
					{
						OFFSET -0.10731 1.60408 0.31370
						CHANNELS 3 Zrotation Yrotation Xrotation
						JOINT Head
						{
							OFFSET 0.08411 1.65679 -0.30822
							CHANNELS 3 Zrotation Yrotation Xrotation
							End Site
							{
								OFFSET 0.03911 1.69149 -0.14146
							}
						}
					}
				}
				JOINT LeftShoulder
				{
					OFFSET 0 0 0
					CHANNELS 3 Zrotation Yrotation Xrotation
					JOINT LeftArm
					{
						OFFSET 3.52315 0.73219 -0.54694
						CHANNELS 3 Zrotation Yrotation Xrotation
						JOINT LeftForeArm
						{
							OFFSET 5.32462 -0.00000 -0.00000
							CHANNELS 3 Zrotation Yrotation Xrotation
							JOINT LeftHand
							{
								OFFSET 3.48402 -0.00000 -0.00000
								CHANNELS 3 Zrotation Yrotation Xrotation
								JOINT LeftFingerBase
								{
									OFFSET 0 0 0
									CHANNELS 3 Zrotation Yrotation Xrotation
									JOINT LeftHandIndex1
									{
										OFFSET 0.57248 -0.00000 -0.00000
										CHANNELS 3 Zrotation Yrotation Xrotation
										End Site
										{
											OFFSET 0.46154 -0.00000 -0.00000
										}
									}
								}
								JOINT LThumb
								{
									OFFSET 0 0 0
									CHANNELS 3 Zrotation Yrotation Xrotation
									End Site
									{
										OFFSET 0.46859 -0.00000 0.46859
									}
								}
							}
						}
					}
				}
				JOINT RightShoulder
				{
					OFFSET 0 0 0
					CHANNELS 3 Zrotation Yrotation Xrotation
					JOINT RightArm
					{
						OFFSET -3.41766 0.93592 -0.10019
						CHANNELS 3 Zrotation Yrotation Xrotation
						JOINT RightForeArm
						{
							OFFSET -5.33589 -0.00000 -0.00000
							CHANNELS 3 Zrotation Yrotation Xrotation
							JOINT RightHand
							{
								OFFSET -3.64134 -0.00000 -0.00000
								CHANNELS 3 Zrotation Yrotation Xrotation
								JOINT RightFingerBase
								{
									OFFSET 0 0 0
									CHANNELS 3 Zrotation Yrotation Xrotation
									JOINT RightHandIndex1
									{
										OFFSET -0.73481 -0.00000 -0.00000
										CHANNELS 3 Zrotation Yrotation Xrotation
										End Site
										{
											OFFSET -0.59242 -0.00000 -0.00000
										}
									}
								}
								JOINT RThumb
								{
									OFFSET 0 0 0
									CHANNELS 3 Zrotation Yrotation Xrotation
									End Site
									{
										OFFSET -0.60147 -0.00000 0.60147
									}
								}
							}
						}
					}
				}
			}
		}
	}
}
MOTION
Frames: 7
Frame Time: .0083333
-4.9385 17.9309 -1.3609 0 0 0 0 0 0 -21 0 0 0 0 0 0 0 0 0 0 0 0 0 0 21 0 0 0 0 0 0 0 0 0 0 0 0 0 0 0 0 0 0 0 0 0 0 -16 0 0 21 0 0 11 0 0 0 -8 0 0 0 0 0 0 0 0 0 0 0 0 0 0 0 0 0 0 0 0 8 0 0 0 0 0 0 0 0 0 0 0 0 0 0 0 0 0
-4.9385 17.9309 -1.3609 2.3230 8.1643 11.0346 0.0000 0.0000 0.0000 -18.2933 -9.0367 -13.4225 1.2337 7.0438 19.8452 0.2320 6.3486 -13.5824 1.2049 -6.9642 -19.6093 0.0000 0.0000 0.0000 16.4520 6.5425 -18.7480 -2.8570 -10.4598 30.4789 -1.5949 -1.0859 -24.2896 -0.0855 -1.8862 5.1912 -1.6266 -2.0733 2.9784 3.8952 -2.7814 1.1510 5.0140 -1.4080 -0.2129 -13.7593 -8.2329 -13.1559 2.9814 -9.0746 26.1583 2.0803 -5.0983 11.5366 0.0000 -0.0000 0.0000 -88.1963 -2.2732 33.0952 23.9211 -35.0808 -7.6612 -0.0000 -0.0000 3.5785 0.9625 33.7583 0.5349 -7.1250 0.0000 -0.0000 -36.2806 59.8889 -14.3032 0.0000 -0.0000 0.0000 77.0826 9.1759 26.0644 -20.4605 31.1932 -5.7680 0.0000 0.0000 7.7738 -19.2123 -2.2320 0.7776 7.1250 -0.0000 -0.0000 5.9477 -32.3055 1.8571
-4.9423 17.9322 -1.3701 2.4516 8.3739 11.1610 0.0000 0.0000 0.0000 -18.3853 -9.1112 -13.5545 1.2237 7.0162 19.7633 0.2294 6.2459 -13.4415 1.2180 -7.0005 -19.7168 0.0000 0.0000 0.0000 16.3172 6.4554 -18.9501 -2.8725 -10.4857 30.5644 -1.6010 -1.1104 -24.3444 -0.0859 -1.8909 5.2043 -1.6243 -2.0137 3.0491 3.8641 -2.7015 1.1534 4.9812 -1.3668 -0.2597 -13.5900 -7.9643 -13.4772 2.7400 -8.6244 26.8358 2.0225 -4.9166 11.7990 0.0000 0.0000 0.0000 -88.1518 -2.4552 33.4694 23.9837 -35.1470 -7.6972 -0.0000 -0.0000 3.4878 0.9899 33.7359 0.5498 -7.1250 0.0000 -0.0000 -36.2310 59.8773 -14.2702 0.0000 0.0000 0.0000 77.0209 9.3752 25.9265 -20.5281 31.2734 -5.8030 0.0000 0.0000 7.9152 -19.6745 -2.0415 0.7297 7.1250 -0.0000 -0.0000 5.5618 -32.1155 1.7611
-4.9470 17.9308 -1.3785 2.4235 8.5636 11.2477 0.0000 0.0000 0.0000 -18.2927 -9.1886 -13.7415 1.2247 7.0191 19.7719 0.2274 6.1476 -13.3137 1.2474 -7.0812 -19.9562 0.0000 0.0000 0.0000 16.3651 6.5432 -19.0349 -2.8754 -10.4906 30.5806 -1.6159 -1.2162 -24.4965 -0.0901 -1.9364 5.3300 -1.5388 -1.9558 3.1439 3.9030 -2.6198 1.1198 4.9761 -1.3234 -0.3574 -13.4670 -7.6762 -13.5521 2.5173 -8.1715 27.3160 1.9894 -4.7371 11.9430 -0.0000 0.0000 0.0000 -88.1676 -2.4619 33.7964 24.1170 -35.2877 -7.7740 -0.0000 -0.0000 3.4692 1.2359 33.9481 0.6902 -7.1250 0.0000 -0.0000 -36.2124 60.1057 -14.4622 -0.0000 0.0000 0.0000 76.8724 9.4038 25.9924 -20.6773 31.4498 -5.8807 0.0000 0.0000 7.8792 -19.3149 -2.4009 0.8412 7.1250 -0.0000 -0.0000 5.8788 -32.4860 1.8097
-4.9507 17.9307 -1.3844 2.4478 8.7464 11.3553 0.0000 0.0000 0.0000 -18.2605 -9.3281 -13.8778 1.2282 7.0286 19.8002 0.2275 6.0736 -13.2440 1.2509 -7.0909 -19.9849 0.0000 0.0000 0.0000 16.3588 6.5064 -19.1893 -2.8764 -10.4922 30.5858 -1.6140 -1.3063 -24.5171 -0.0859 -1.8904 5.2028 -1.5216 -1.9347 3.2081 3.9567 -2.5898 1.1045 5.0247 -1.3072 -0.4101 -13.3604 -7.4025 -13.7559 2.2528 -7.7011 27.9005 1.9408 -4.5584 12.1560 0.0000 0.0000 0.0000 -88.2582 -2.5183 33.9605 24.2195 -35.3955 -7.8334 -0.0000 -0.0000 3.4645 1.4271 33.9754 0.7976 -7.1250 0.0000 -0.0000 -36.0550 60.1728 -14.4476 0.0000 0.0000 0.0000 76.6431 9.5363 26.2390 -20.8066 31.6019 -5.9483 0.0000 0.0000 7.6744 -18.9993 -2.8815 0.9916 7.1250 -0.0000 -0.0000 6.1739 -32.9829 1.8270
-4.9518 17.9307 -1.3856 2.5578 8.8813 11.4868 0.0000 0.0000 0.0000 -18.3448 -9.3760 -14.0529 1.2375 7.0542 19.8760 0.2337 5.9222 -13.1956 1.2353 -7.0481 -19.8580 0.0000 0.0000 0.0000 16.2359 6.3567 -19.3760 -2.8712 -10.4835 30.5571 -1.5939 -1.3281 -24.3758 -0.0805 -1.8307 5.0379 -1.4653 -1.8586 3.1742 3.8839 -2.4879 1.1395 4.9117 -1.2568 -0.3711 -13.2090 -7.2244 -13.9802 2.0835 -7.4017 28.4742 1.8926 -4.4400 12.3895 -0.0000 -0.0000 0.0000 -88.1421 -2.6328 34.3536 24.3622 -35.5450 -7.9162 -0.0000 -0.0000 3.3773 1.5432 33.7282 0.8570 -7.1250 0.0000 -0.0000 -35.6859 60.0007 -14.1274 -0.0000 -0.0000 0.0000 76.5640 9.6679 26.2749 -20.9786 31.8034 -6.0387 0.0000 0.0000 7.4935 -19.0657 -3.0389 1.0497 7.1250 -0.0000 -0.0000 6.1341 -33.1504 1.7901
-4.9543 17.9285 -1.3880 2.4989 9.0618 11.5603 0.0000 0.0000 0.0000 -18.2353 -9.4194 -14.2017 1.2460 7.0774 19.9450 0.2406 5.7826 -13.1734 1.2214 -7.0099 -19.7447 0.0000 0.0000 0.0000 16.3025 6.3291 -19.4437 -2.8646 -10.4726 30.5211 -1.6089 -1.2384 -24.4527 -0.1079 -2.1180 5.8319 -1.2914 -1.7644 3.1398 3.8729 -2.3584 1.2084 4.7949 -1.1932 -0.3011 -13.0395 -7.0556 -14.1647 1.8591 -7.1065 29.0073 1.8211 -4.3283 12.5999 0.0000 0.0000 0.0000 -88.0923 -2.8034 34.6956 24.4943 -35.6826 -7.9930 -0.0000 -0.0000 3.3822 1.9760 33.5570 1.0925 -7.1250 0.0000 -0.0000 -35.0895 59.9634 -13.8228 0.0000 0.0000 0.0000 76.4836 9.8910 26.1583 -21.0807 31.9224 -6.0925 0.0000 0.0000 7.3063 -19.0356 -3.1362 1.0814 7.1250 -0.0000 -0.0000 6.1671 -33.2517 1.7847
